<svg width="24" height="27" viewBox="0 0 24 27" fill="none" xmlns="http://www.w3.org/2000/svg">
<path d="M20.5 17.875H8M8 17.875V4.0729M8 17.875L3.5 22.8437M3.5 9.04165H16M16 9.04165V22.8437M16 9.04165L20.5 4.0729M21 17.1432V4.40415C21 4.09495 21 3.94035 20.9455 3.82226C20.8976 3.71837 20.8211 3.63392 20.727 3.58099C20.62 3.52081 20.48 3.52081 20.2 3.52081H8.66274C8.41815 3.52081 8.29586 3.52081 8.18077 3.55132C8.07873 3.57837 7.98119 3.62298 7.89172 3.68352C7.7908 3.75181 7.70432 3.84729 7.53137 4.03826L3.46863 8.5242C3.29568 8.71517 3.2092 8.81065 3.14736 8.92208C3.09253 9.02087 3.05213 9.12858 3.02763 9.24124C3 9.36832 3 9.50335 3 9.77342V22.5125C3 22.8217 3 22.9763 3.0545 23.0944C3.10243 23.1983 3.17892 23.2827 3.273 23.3356C3.37996 23.3958 3.51997 23.3958 3.8 23.3958H15.3373C15.5818 23.3958 15.7041 23.3958 15.8192 23.3653C15.9213 23.3383 16.0188 23.2936 16.1083 23.2331C16.2092 23.1648 16.2957 23.0693 16.4686 22.8784L20.5314 18.3924C20.7043 18.2015 20.7908 18.106 20.8526 17.9945C20.9075 17.8958 20.9479 17.788 20.9724 17.6754C21 17.5483 21 17.4133 21 17.1432Z" stroke="#FF5555" stroke-width="2" stroke-linecap="round" stroke-linejoin="round"/>
</svg>
